<?xml version="1.0" encoding="iso-8859-1"?>
<!-- Generator: Adobe Illustrator 18.0.0, SVG Export Plug-In . SVG Version: 6.00 Build 0)  -->
<!DOCTYPE svg PUBLIC "-//W3C//DTD SVG 1.1//EN" "http://www.w3.org/Graphics/SVG/1.1/DTD/svg11.dtd">
<svg version="1.1" id="Capa_1" xmlns="http://www.w3.org/2000/svg" xmlns:xlink="http://www.w3.org/1999/xlink" x="0px" y="0px"
	 viewBox="0 0 303.124 303.124" style="enable-background:new 0 0 303.124 303.124;" xml:space="preserve">
<path d="M110.244,128.555V6c0-3.314-2.687-6-6-6H6C4.408,0,2.881,0.633,1.756,1.759C0.63,2.886-0.001,4.413,0,6.005l0.105,122.549
	c0,28.337,21.519,51.736,49.072,54.736v116.592H6c-3.313,0-6,2.686-6,6c0,3.314,2.687,6,6,6h98.244c3.313,0,6-2.686,6-6
	c0-3.314-2.687-6-6-6H61.178V183.291C88.729,180.291,110.244,156.892,110.244,128.555z M12.106,128.549L12.005,12h86.239v116.555
	c0,23.748-19.319,43.069-43.066,43.069C31.428,171.624,12.106,152.303,12.106,128.549z"/>
<g>
</g>
<g>
</g>
<g>
</g>
<g>
</g>
<g>
</g>
<g>
</g>
<g>
</g>
<g>
</g>
<g>
</g>
<g>
</g>
<g>
</g>
<g>
</g>
<g>
</g>
<g>
</g>
<g>
</g>
</svg>
